# xmcd
#
# Track frame offsets:
#	150
#	15155
#	31361
#	47448
#
# Disc length: 790 seconds
#
# Revision: 0
# Processed by: cddbd v1.5.2PL0 Copyright (c) Steve Scherf et al.
# Submitted via: audiograbber 1.83.01
#
DISCID=1e031404
DTITLE=Sebastian Siegel - Darum Lieb ich Dich
DYEAR=1900
DGENRE=Volksmusik
TTITLE0=Darum Lieb ich Dich
TTITLE1=Denn unsere Liebe die stirbt nie
TTITLE2=Denn unsere Liebe die stirbt nie (Classic Version)
TTITLE3=Weißblaues Glück
EXTD=
EXTT0=
EXTT1=
EXTT2=
EXTT3=
PLAYORDER=
